<?xml version="1.0" encoding="UTF-8" standalone="no"?>
<!-- Created with Inkscape (http://www.inkscape.org/) -->

<svg
   version="1.1"
   id="svg1"
   width="432"
   height="432"
   viewBox="0 0 432 432"
   sodipodi:docname="logo.svg"
   inkscape:version="1.4.3 (1:1.4.3+202512261034+0d15f75042)"
   inkscape:export-filename="logo.png"
   inkscape:export-xdpi="96"
   inkscape:export-ydpi="96"
   xmlns:inkscape="http://www.inkscape.org/namespaces/inkscape"
   xmlns:sodipodi="http://sodipodi.sourceforge.net/DTD/sodipodi-0.dtd"
   xmlns="http://www.w3.org/2000/svg"
   xmlns:svg="http://www.w3.org/2000/svg">
  <defs
     id="defs1" />
  <sodipodi:namedview
     id="namedview1"
     pagecolor="#ffffff"
     bordercolor="#666666"
     borderopacity="1.0"
     inkscape:showpageshadow="2"
     inkscape:pageopacity="0.0"
     inkscape:pagecheckerboard="0"
     inkscape:deskcolor="#d1d1d1"
     inkscape:zoom="0.66045738"
     inkscape:cx="442.87491"
     inkscape:cy="282.38007"
     inkscape:window-width="1860"
     inkscape:window-height="1016"
     inkscape:window-x="60"
     inkscape:window-y="27"
     inkscape:window-maximized="1"
     inkscape:current-layer="g1" />
  <g
     inkscape:groupmode="layer"
     inkscape:label="Image"
     id="g1">
    <rect
       style="fill:#ffffff;fill-opacity:1;stroke-width:3.86137;stroke-linecap:round;stroke-linejoin:round;paint-order:stroke fill markers"
       id="rect1"
       width="432"
       height="432"
       x="0"
       y="0"
       ry="89.233093" />
    <g
       id="g2"
       transform="matrix(1.2146527,0,0,1.2146527,-17.657263,-13.684825)">
      <path
         style="fill:#3a8bde"
         d="m 186.39272,225.43367 c -1.53784,-0.83383 -3.22534,-2.6451 -3.75,-4.02507 -0.569,-1.49659 -0.95393,-28.21799 -0.95393,-66.22141 0,-70.247276 -0.30184,-66.865642 6.21275,-69.604819 3.86011,-1.623057 7.07948,-0.934779 9.95827,2.129011 l 2.32898,2.478646 0.27133,64.998542 0.27134,64.99854 -3.42134,3.42134 c -3.74771,3.74771 -6.51762,4.21079 -10.9174,1.82522 z m 24.04605,-10.484 c -4.68008,-2.72589 -4.74998,-3.59005 -4.74998,-58.72101 0,-34.27336 0.36328,-52.94254 1.06962,-54.96876 1.50603,-4.320191 6.79964,-6.758404 11.38655,-5.244588 6.78037,2.237726 6.54383,0.0724 6.54383,59.902558 v 53.95846 l -2.58889,3.07672 c -2.03735,2.42125 -3.36888,3.07025 -6.25,3.04632 -2.01361,-0.0167 -4.44862,-0.48909 -5.41113,-1.0497 z m -74.22916,-11.30816 c -1.31355,-1.31355 -2.66968,-3.90105 -3.01363,-5.75 -0.34394,-1.84895 -0.48626,-22.1135 -0.31627,-45.03233 l 0.30908,-41.6706 2.37558,-2.52753 c 1.30657,-1.39014 3.63623,-2.80441 5.17701,-3.14282 3.2662,-0.71738 8.37823,1.57951 9.91777,4.45616 0.66192,1.23681 1.02964,17.80818 1.02964,46.40075 v 44.47685 l -3.07673,2.5889 c -4.03364,3.39408 -9.1266,3.47647 -12.40245,0.20062 z m 123.83618,-6.60331 c -5.28942,-2.13455 -5.357,-2.65369 -5.357,-41.1542 v -35.70077 l 2.58889,-3.07672 c 4.42853,-5.26301 12.61425,-3.82894 15.31134,2.68241 0.8442,2.03807 1.09462,12.6501 0.88782,37.62289 l -0.28805,34.78409 -3.26578,2.91694 c -3.31465,2.96059 -6.00997,3.48599 -9.87722,1.92536 z m -99.7625,-9.68665 -2.67823,-2.67823 0.29186,-29.26588 c 0.28729,-28.80623 0.32691,-29.2985 2.5228,-31.34295 4.862,-4.52671 12.80666,-2.97948 15.27284,2.97439 0.7214,1.74161 0.98865,11.99398 0.79238,30.39739 l -0.29615,27.76942 -2.80576,2.41205 c -3.95804,3.40262 -9.54445,3.2891 -13.09974,-0.26619 z m -48.67019,-8.90013 c -2.36757,-2.51802 -2.43196,-3.03344 -2.75106,-22.02325 l -0.32676,-19.44488 3.47676,-3.47676 c 1.91221,-1.91221 4.4441,-3.47675 5.62641,-3.47675 2.97841,0 7.78424,2.63427 9.0207,4.94461 0.60396,1.12852 1.02964,9.8869 1.02964,21.18493 v 19.26102 l -2.68709,2.80472 c -3.68653,3.84791 -9.88489,3.9527 -13.3886,0.22636 z m 121.14827,-1.0565 c -1.92545,-2.44781 -2.07258,-3.93522 -2.07258,-20.95295 0,-19.51911 0.55871,-22.43446 4.65732,-24.30192 4.07655,-1.8574 7.31237,-1.29443 10.4196,1.81281 l 2.92308,2.92307 v 19.12238 c 0,18.96944 -0.0196,19.14201 -2.45455,21.57692 -3.58077,3.58078 -10.58817,3.48699 -13.47287,-0.18031 z M 88.696793,169.1369 c -3.66516,-1.02 -4.97673,-4.62442 -4.99326,-13.72226 -0.01873,-10.31162 1.87459,-13.38486 8.24596,-13.38486 11.455097,0 17.646587,14.01456 10.135227,22.94131 -2.05478,2.44197 -8.195017,5.36766 -10.395927,4.95343 -0.275,-0.0518 -1.6214,-0.40618 -2.992,-0.78762 z M 281.21901,165.76 c -8.89381,-8.89381 -2.87203,-23.73022 9.6316,-23.73022 5.90458,0 7.84173,3.31421 7.82344,13.38486 -0.0207,11.38926 -1.04123,13.03719 -8.30863,13.4165 -5.40322,0.282 -5.99044,0.0848 -9.14641,-3.07114 z"
         id="path3"
         sodipodi:nodetypes="ssssscccssssssscsssssscsssscsssscssscssscsssscsssscsssscsssssscssssssssssssss" />
      <path
         style="fill:#585858"
         d="m 260.18879,338.73288 c -21.92941,-11.8838 -46.81442,-35.37841 -62.5,-59.00792 l -4.5,-6.77901 -8.5,0.65778 c -37.62379,2.91155 -62.24517,-3.32019 -77.2807,-19.55996 l -6.47812,-6.99696 -11.876807,-3.45147 c -6.53224,-1.89831 -15.14806,-4.78272 -19.14625,-6.4098 -23.53903,-9.57928 -38.70528,-25.30767 -43.60346,-45.21965 -4.23248,-17.2058 0.17172,-44.95694 10.62298,-66.93611 13.65702,-28.720913 45.08019,-59.616048 75.146337,-73.883597 20.70536,-9.825489 35.45325,-13.136906 60.61602,-13.610412 9.625,-0.18112 27.4,-0.637481 39.5,-1.014136 17.46113,-0.543537 24.06312,-0.368492 32,0.848448 25.21515,3.866169 46.04583,14.213166 68.79305,34.170816 22.21784,19.493192 37.57922,41.677661 44.30835,63.988881 2.34499,7.77507 2.7169,10.76934 2.73262,22 0.0167,11.93036 -0.24093,13.78166 -3.13111,22.5 -4.00189,12.0719 -12.28273,24.89142 -22.60844,35 -6.15452,6.0251 -8.52689,9.26988 -12.06373,16.5 -2.42145,4.95 -6.65972,11.76038 -9.41837,15.13417 -9.38515,11.47792 -25.58993,21.61766 -42.36237,26.5072 -4.2625,1.24261 -7.73783,2.73165 -7.72295,3.30896 0.0624,2.42148 5.95065,14.66498 10.24644,21.30559 2.54556,3.93505 7.1254,9.87084 10.1774,13.19067 4.67779,5.08826 5.54903,6.62622 5.54863,9.79472 -4.3e-4,3.33339 -0.93392,4.74931 -8.25,12.51358 -9.6306,10.22057 -10.84171,10.54642 -20.24952,5.44821 z m 3.5321,-21.4531 c -9.53161,-12.27894 -18.13576,-30.02162 -21.45168,-44.23569 -1.08338,-4.64404 -1.0941,-6.26565 -0.0577,-8.73055 1.6318,-3.88089 5.08856,-6.28376 9.03981,-6.28376 5.5948,0 18.76029,-3.90124 27.25614,-8.07662 11.67958,-5.74008 20.88985,-14.59117 26.17856,-25.1577 2.20152,-4.3985 4.00276,-8.58937 4.00276,-9.31306 0,-0.72368 4.8375,-6.18407 10.75,-12.1342 16.40925,-16.51368 21.27041,-26.29196 22.03238,-44.31842 l 0.44383,-10.5 -4.14204,4.68633 c -2.27812,2.57747 -5.81651,5.68564 -7.8631,6.90704 -2.04658,1.22139 -5.07106,3.45041 -6.72106,4.95336 -3.44433,3.13738 -6.2114,4.15327 -11.31257,4.15327 -5.80988,0 -7.18743,-2.61085 -7.18743,-13.62222 0,-8.02512 0.274,-9.49476 2.14455,-11.50256 1.82315,-1.95692 2.87373,-2.23183 7.01013,-1.83438 2.67607,0.25714 5.72754,1.24758 6.78105,2.20099 2.85035,2.57954 5.12296,1.58004 7.82587,-3.44183 2.10792,-3.91642 2.35453,-5.40779 1.9016,-11.5 -0.28623,-3.85 -1.2314,-8.98001 -2.10038,-11.40002 -3.01062,-8.38425 -20.06365,-27.221674 -28.82186,-31.837719 -4.777,-2.517733 -6.17048,-2.759187 -15.74096,-2.727515 -9.59671,0.03176 -11.1608,0.316913 -18.18125,3.314696 -4.22468,1.803972 -8.21729,3.925835 -8.87244,4.715252 -0.65516,0.789417 -2.8961,1.435304 -4.97986,1.435304 -3.0333,0 -4.32461,-0.636937 -6.47681,-3.194678 -2.18679,-2.598858 -2.58205,-3.857759 -2.1193,-6.75 0.31332,-1.958314 1.5918,-4.390934 2.84621,-5.415594 3.3419,-2.729827 12.60054,-7.22705 18.83815,-9.150303 2.99491,-0.923428 6.09509,-1.880686 6.88927,-2.127241 3.36345,-1.044185 -13.6519,-7.447637 -26.63198,-10.022512 -6.53163,-1.295689 -13.72879,-1.746245 -27.81199,-1.741088 -18.1976,0.0067 -19.35897,0.126817 -27.5,2.845111 -15.54348,5.189972 -27.21992,11.854303 -37.17576,21.218078 -3.12167,2.936025 -6.57988,5.338227 -7.6849,5.338227 -3.93952,0 -7.17505,-2.007038 -8.8299,-5.477281 -1.55211,-3.254812 -1.55735,-3.779643 -0.0689,-6.901018 0.88605,-1.858064 4.11359,-5.538874 7.1723,-8.179578 3.05872,-2.640704 5.41158,-4.95101 5.22857,-5.134014 -0.79968,-0.799686 -18.87707,5.174724 -26.58006,8.784465 -26.616297,12.472819 -54.883387,39.563058 -67.133807,64.338818 -3.96791,8.02487 -10.12815,26.0347 -9.21684,26.94601 0.26258,0.26257 2.88846,-1.06493 5.8353,-2.95 2.94684,-1.88507 5.79919,-3.4274 6.33855,-3.4274 0.53935,0 1.24115,-0.82077 1.55954,-1.82393 1.24577,-3.92508 6.28041,-7.44319 11.3486,-7.93018 4.41091,-0.42383 5.0964,-0.20231 7.04675,2.27716 1.84034,2.33962 2.16053,4.04405 2.16053,11.50102 0,11.14609 -1.38475,13.33224 -8.37794,13.22652 -2.5845,-0.0391 -5.80308,-0.79441 -7.15241,-1.67852 -2.31106,-1.51426 -2.67123,-1.46806 -6.21148,0.79688 -7.28912,4.66333 -13.24812,12.91436 -13.25443,18.35254 -0.011,9.49316 10.20553,22.05639 23.5593,28.97071 6.32922,3.27715 24.07441,10.3078 26.01664,10.3078 0.23118,0 0.42032,-2.84332 0.42032,-6.3185 0,-7.81036 2.23125,-15.61445 5.613547,-19.63408 4.63009,-5.50254 13.25029,-3.4224 15.01888,3.6242 0.30527,1.21628 -0.42399,4.82523 -1.62057,8.0199 -2.77797,7.41669 -2.09786,14.03617 2.3186,22.56657 7.93719,15.33074 27.29023,22.75578 55.69593,21.36846 6.88951,-0.33648 15.21451,-1.08804 18.5,-1.67014 13.88109,-2.45937 27.79856,-8.49805 38.831,-16.84847 6.38411,-4.83212 15.59138,-13.8665 15.62567,-15.33226 0.0385,-1.64697 6.25722,-3.88182 9.07774,-3.26233 3.38853,0.74425 6.9392,4.79971 6.9392,7.92573 0,3.55577 -5.16067,10.60125 -13.37829,18.2644 -8.6339,8.05134 -11.85032,10.17066 -25.84638,17.03032 -5.34857,2.62141 -9.73607,5.076 -9.75,5.45465 -0.0599,1.62776 13.23611,18.07316 21.96749,27.1709 8.39438,8.7466 29.03134,25.64065 31.32139,25.64065 0.46893,0 -0.10802,-1.2375 -1.28211,-2.75 z"
         id="path2"
         sodipodi:nodetypes="sscsscssssssssssssssssssssssssssssssscsssssssssssssssssssssssssssssssssssssssssssssssssssssssssssssss" />
    </g>
  </g>
</svg>
