<?xml version="1.0" encoding="UTF-8" standalone="no"?>
<!-- Created with Inkscape (http://www.inkscape.org/) -->

<svg
   version="1.1"
   id="svg1"
   width="428"
   height="428"
   viewBox="0 0 428 428"
   sodipodi:docname="logo2.svg"
   inkscape:version="1.4.3 (1:1.4.3+202512261034+0d15f75042)"
   xmlns:inkscape="http://www.inkscape.org/namespaces/inkscape"
   xmlns:sodipodi="http://sodipodi.sourceforge.net/DTD/sodipodi-0.dtd"
   xmlns:xlink="http://www.w3.org/1999/xlink"
   xmlns="http://www.w3.org/2000/svg"
   xmlns:svg="http://www.w3.org/2000/svg">
  <defs
     id="defs1">
    <linearGradient
       id="linearGradient6"
       inkscape:collect="always">
      <stop
         style="stop-color:#cad7ed;stop-opacity:1;"
         offset="0"
         id="stop6" />
      <stop
         style="stop-color:#3c7ac4;stop-opacity:1;"
         offset="1"
         id="stop7" />
    </linearGradient>
    <linearGradient
       inkscape:collect="always"
       xlink:href="#linearGradient6"
       id="linearGradient7"
       x1="261.73126"
       y1="122.85345"
       x2="260.66296"
       y2="333.30673"
       gradientUnits="userSpaceOnUse"
       gradientTransform="translate(386,101)" />
  </defs>
  <sodipodi:namedview
     id="namedview1"
     pagecolor="#ffffff"
     bordercolor="#666666"
     borderopacity="1.0"
     inkscape:showpageshadow="2"
     inkscape:pageopacity="0.0"
     inkscape:pagecheckerboard="0"
     inkscape:deskcolor="#d1d1d1"
     inkscape:zoom="0.93607469"
     inkscape:cx="190.15577"
     inkscape:cy="220.60205"
     inkscape:window-width="1860"
     inkscape:window-height="1016"
     inkscape:window-x="60"
     inkscape:window-y="27"
     inkscape:window-maximized="1"
     inkscape:current-layer="g2" />
  <g
     inkscape:groupmode="layer"
     inkscape:label="Image"
     id="g1"
     transform="translate(-386,-101)">
    <g
       id="g2">
      <path
         style="fill:#fcc200"
         d="m 433.42926,223.10719 c -5.50448,-2.50008 -10.11833,-8.34344 -11.48893,-14.55052 -0.69796,-3.16088 -0.98981,-13.14799 -0.77845,-26.63876 l 0.33812,-21.58208 3.00487,-4.91792 c 2.25524,-3.69104 4.35809,-5.60395 8.42931,-7.66791 l 5.42445,-2.75 h 48.20649 48.2065 l 5.34875,2.79422 c 3.89196,2.03319 6.17004,4.12186 8.36419,7.66877 l 3.01544,4.87455 0.33506,21.26303 c 0.38662,24.53564 -0.41359,30.21925 -5.04586,35.839 -6.31346,7.65932 -5.16795,7.51651 -60.2892,7.51651 -45.53059,0 -49.28823,-0.13091 -53.07074,-1.84889 z M 468.0036,201.5 l 1.66415,-5 9.01869,-0.28557 9.01868,-0.28558 2.00204,5.28558 c 1.8646,4.92274 2.25228,5.30688 5.64744,5.59594 2.00497,0.1707 3.6454,0.091 3.6454,-0.177 0,-0.39919 -13.00111,-34.67574 -15.52654,-40.93468 -0.56361,-1.39682 -1.63122,-1.73365 -4.75442,-1.5 L 474.69143,164.5 466.84706,185 c -4.31441,11.275 -7.84498,20.86466 -7.84572,21.31037 -7.4e-4,0.4457 1.65004,0.6707 3.66839,0.5 3.43264,-0.29032 3.77725,-0.63341 5.33387,-5.31037 z m 7.35238,-20.44746 c 1.72921,-4.92111 3.47576,-8.61687 3.88121,-8.21281 C 480.0114,173.61127 485,187.7521 485,189.17515 485,189.62882 482.12269,190 478.60598,190 h -6.39403 z m 35.41409,4.1359 0.27006,-21.31156 -3.77006,0.31156 L 503.5,164.5 l -0.27188,19.97179 c -0.14953,10.98448 -0.0401,20.57573 0.24312,21.31387 0.32308,0.84193 1.72875,1.22511 3.77188,1.02821 L 510.5,206.5 Z"
         id="path5" />
      <rect
         style="display:inline;fill:url(#linearGradient7);stroke:none;stroke-width:5.89783;stroke-linecap:round;stroke-linejoin:round;paint-order:stroke fill markers"
         id="rect6"
         width="130.37219"
         height="263.82443"
         x="654.44305"
         y="184.12144" />
      <path
         style="fill:#2c2c2f;stroke-width:1.0001"
         d="M 469.5,527.55681 C 431.69016,522.61787 403.1699,499.63454 391.63875,464.81158 386.14977,448.23539 386,444.25681 386,315.02197 c 0,-123.87652 0.20748,-130.76777 4.38091,-145.50788 8.6097,-30.40852 29.6896,-52.63813 59.13412,-62.3593 C 468.07219,101.0281 468.75916,101 600,101 c 131.24084,0 131.92781,0.0281 150.48497,6.15479 29.44576,9.72158 50.44548,31.86267 59.14471,62.3593 C 813.7473,183.94912 814,192.39305 814,315.54765 c 0,128.66188 -0.15238,132.69563 -5.63875,149.26393 -9.43877,28.50416 -31.05611,49.90175 -59.36125,58.75782 -17.24272,5.39485 -20.9626,5.52851 -150.46199,5.40615 -91.63817,-0.0866 -121.33978,-0.41316 -129.03801,-1.41874 z m 176.69291,-40.72747 c 1.41766,-1.12524 1.64019,-18.05196 2.22552,-169.28481 0.59098,-152.69336 0.50509,-168.24002 -0.94074,-170.28502 -1.85119,-2.61834 -5.6417,-2.94373 -7.90626,-0.67871 C 638.15533,147.99718 638,164.75553 638,316.11567 c 0,166.6295 0.0159,167.97899 2,169.96352 2.30923,2.3097 3.97401,2.51135 6.19291,0.75015 z M 733.8,446.87112 c 0.92094,-0.92113 1.2,-31.23864 1.2,-130.37182 V 187.32773 l -2.06834,-1.87221 c -1.89026,-1.71101 -2.29922,-1.74259 -4.75,-0.36675 L 725.5,186.59423 725.24621,315.4995 c -0.23405,118.87999 -0.12478,129.04785 1.40499,130.73856 1.89389,2.09316 5.38033,2.4019 7.1488,0.63306 z m -20.77525,-41.3736 C 713.63135,403.9017 714,369.9586 714,315.70156 c 0,-78.26705 -0.16407,-87.46463 -1.59669,-89.51041 -1.11151,-1.58721 -2.39591,-2.18673 -4.22683,-1.9729 -5.50509,0.6429 -5.36464,-2.17215 -4.65632,93.32628 0.43238,58.29437 1.00268,88.44032 1.68879,89.26836 0.56976,0.68764 2.34198,1.25025 3.93825,1.25025 2.1953,0 3.13987,-0.62499 3.87755,-2.56562 z M 755.8,406.8629 c 0.9154,-0.91559 1.2,-22.3665 1.2,-90.44717 0,-79.79996 -0.16634,-89.4133 -1.57143,-90.81868 -2.00703,-2.00744 -4.85011,-2.00744 -6.85714,0 C 747.16634,227.00243 747,236.61577 747,316.41573 c 0,68.08067 0.2846,89.53158 1.2,90.44717 0.66,0.66013 2.37,1.20024 3.8,1.20024 1.43,0 3.14,-0.54011 3.8,-1.20024 z M 602.77749,384.5016 605,382.94457 v -66.02262 c 0,-43.59831 -0.3516,-66.67971 -1.03518,-67.95726 -1.25255,-2.34089 -5.22106,-2.53568 -7.39339,-0.36291 -1.397,1.39729 -1.57143,8.94041 -1.57143,67.95727 v 66.38552 l 2.22251,1.55703 c 1.22237,0.85635 2.47225,1.55702 2.77749,1.55702 0.30524,0 1.55512,-0.70067 2.77749,-1.55702 z M 581.06574,364.01891 C 582.9353,363.01814 583,361.43559 583,316.70918 c 0,-48.90918 0.0223,-48.67483 -4.62857,-48.67483 -5.43978,0 -5.37143,-0.61181 -5.37143,48.08132 0,43.6042 0.0593,44.99717 2,46.93822 2.26853,2.26899 3.31787,2.43593 6.06574,0.96502 z m 109.89908,-5.9003 C 691.62941,356.87656 692,341.71404 692,315.76489 c 0,-39.34976 -0.0537,-40.46768 -2.03028,-42.25682 -1.60858,-1.45605 -2.59518,-1.63909 -4.75,-0.8813 l -2.71972,0.95647 -0.26108,41.86892 c -0.18755,30.07742 0.0581,42.25366 0.87245,43.23502 1.71254,2.06391 6.63558,1.7075 7.85345,-0.56857 z m 87,0 C 778.62871,356.87787 779,341.89039 779,316.33253 c 0,-34.44985 -0.211,-40.15274 -1.5567,-42.07439 -1.69357,-2.41841 -5.334,-2.93241 -7.2433,-1.02272 -1.72501,1.72536 -1.72501,83.89224 0,85.6176 1.90147,1.90187 6.59158,1.45826 7.76482,-0.73441 z M 451.8,345.85035 c 0.87675,-0.87693 1.2,-8.81891 1.2,-29.48301 v -28.28276 l -2.5,-1.63841 c -2.31587,-1.51772 -2.68413,-1.51772 -5,0 l -2.5,1.63841 v 27.54835 c 0,17.07704 0.39348,28.28373 1.03518,29.48301 1.17324,2.19267 5.86335,2.63627 7.76482,0.73441 z m 108.6433,-1.02272 c 1.31485,-1.8776 1.5567,-6.38405 1.5567,-29.00596 0,-25.4494 -0.0996,-26.88261 -2,-28.78341 -2.26853,-2.269 -3.31787,-2.43593 -6.06574,-0.96502 -1.84353,0.98683 -1.93426,2.38502 -1.93426,29.80613 0,21.04363 0.32229,29.09309 1.2,29.97098 1.9093,1.90969 5.54973,1.39569 7.2433,-1.02272 z m 64.72796,0.56764 C 626.85798,343.86849 627,341.6159 627,316.3893 c 0,-26.01703 -0.0975,-27.44817 -2,-29.35104 -2.40772,-2.40822 -4.32182,-2.53586 -6.42857,-0.42866 -1.35435,1.35463 -1.57143,5.47211 -1.57143,29.80613 0,20.62646 0.32335,28.55779 1.2,29.43462 1.69346,1.69381 4.82295,1.48952 6.97126,-0.45508 z M 473.96482,334.11368 C 474.55776,333.00552 475,325.16683 475,315.76489 c 0,-15.22548 -0.14703,-16.54721 -2.03028,-18.25188 -1.60822,-1.45572 -2.59568,-1.63908 -4.75,-0.88201 l -2.71972,0.95575 -0.27356,17.84966 c -0.18876,12.31684 0.0817,18.27776 0.87245,19.23079 1.72291,2.07642 6.64401,1.73012 7.86593,-0.55352 z m 65,0 c 0.59165,-1.10575 1.03518,-8.89286 1.03518,-18.175 0,-13.70819 -0.25804,-16.52553 -1.65499,-18.06946 -2.03113,-2.24484 -4.68567,-2.3457 -6.77358,-0.25736 -1.30696,1.30723 -1.57143,4.47191 -1.57143,18.80387 0,12.06915 0.35954,17.59172 1.2,18.43236 1.90147,1.90186 6.59158,1.45826 7.76482,-0.73441 z m 129.10092,-5.10197 C 669.80507,328.08066 670,326.82299 670,316.53219 c 0,-11.10334 -0.0744,-11.4929 -2.5,-13.08252 -2.31587,-1.51772 -2.68413,-1.51772 -5,0 -2.40759,1.57785 -2.5,2.03209 -2.5,12.2888 0,8.5067 0.33311,11.01856 1.65499,12.47951 1.87779,2.07537 3.61472,2.29043 6.41075,0.79373 z m -239,-1.00021 C 430.78523,327.09106 431,325.83611 431,316.70918 c 0,-10.87079 -0.65648,-12.66743 -4.62857,-12.66743 -4.29583,0 -5.37143,2.41774 -5.37143,12.07392 0,7.5968 0.29867,9.22913 2,10.93081 2.26853,2.269 3.31787,2.43593 6.06574,0.96502 z m 65.49313,-0.38427 c 1.60398,-1.17309 2.0025,-2.9134 2.29448,-10.01986 0.40236,-9.7931 -1.07702,-13.56562 -5.3197,-13.56562 -4.04352,0 -5.53365,3.42669 -5.53365,12.72513 0,6.94559 0.32216,8.60142 2,10.2796 2.36679,2.36728 3.9272,2.50545 6.55887,0.58075 z M 516.8,322.84562 c 0.66,-0.66014 1.2,-3.51598 1.2,-6.34632 0,-3.93249 -0.48777,-5.58758 -2.06834,-7.01828 -1.88792,-1.70889 -2.30225,-1.74141 -4.75,-0.37273 -2.22156,1.24221 -2.73372,2.30323 -2.98506,6.18407 -0.39015,6.02403 1.05624,8.75351 4.63858,8.75351 1.52065,0 3.30482,-0.54011 3.96482,-1.20025 z m 22.77074,-99.71332 c 5.68922,-2.58452 10.12548,-8.32864 11.48277,-14.86801 0.68965,-3.3227 0.98849,-13.5117 0.78155,-26.64714 L 551.5,160.34974 l -3.01544,-4.87555 c -2.19415,-3.54764 -4.47223,-5.63674 -8.36419,-7.67035 l -5.34875,-2.79479 h -48.2065 -48.20649 l -5.42445,2.75057 c -4.07122,2.06438 -6.17407,3.97768 -8.42931,7.66948 l -3.00487,4.91893 -0.33812,21.58652 c -0.38515,24.58875 0.36075,29.84023 5.04583,35.52522 6.31697,7.66515 5.16791,7.52181 60.29229,7.52181 45.53059,0 49.28823,-0.13094 53.07074,-1.84928 z m -80.5694,-16.80027 c 7.4e-4,-0.4458 3.53131,-10.03743 7.84572,-21.31475 l 7.84437,-20.50422 4.02761,-0.30137 c 3.1232,-0.2337 4.19081,0.1032 4.75442,1.50031 2.52543,6.26022 15.52654,40.54382 15.52654,40.9431 0,0.2681 -1.64043,0.34777 -3.6454,0.17703 -3.39516,-0.28912 -3.78284,-0.67334 -5.64744,-5.59709 l -2.00204,-5.28667 -9.01868,0.28564 -9.01869,0.28563 -1.66415,5.00103 c -1.55662,4.67792 -1.90123,5.02108 -5.33387,5.31146 -2.01835,0.17074 -3.66913,-0.0543 -3.66839,-0.5001 z M 485,189.19329 c 0,-1.42335 -4.9886,-15.56709 -5.76281,-16.33878 -0.40545,-0.40415 -2.152,3.29237 -3.88121,8.2145 l -3.14403,8.9493 h 6.39403 c 3.51671,0 6.39402,-0.37126 6.39402,-0.82502 z m 18.47124,16.61392 c -0.28325,-0.73829 -0.39265,-10.33151 -0.24312,-21.31825 l 0.27188,-19.9759 3.77007,-0.31162 3.77006,-0.31163 -0.27006,21.31595 -0.27007,21.31594 -3.25688,0.31393 c -2.04313,0.19694 -3.4488,-0.18631 -3.77188,-1.02842 z"
         id="path2" />
    </g>
  </g>
</svg>
